<svg width="50" height="50" viewBox="0 0 50 50" fill="none" xmlns="http://www.w3.org/2000/svg">
<path d="M16.2268 42.916C16.5958 42.8374 17.1043 42.1906 17.1948 41.9563C17.5726 40.9819 17.4621 39.9756 17.2845 38.9652C16.7976 36.1933 14.7386 33.8819 12.0905 32.9421C11.9435 33.173 13.8771 32.3426 14.051 32.2502C15.5413 31.4577 16.9296 30.2714 17.5705 28.6698C18.9277 25.2776 16.5146 21.5669 13.1519 20.6011C13.1424 20.5981 13.5137 20.4791 13.6136 20.432C13.9666 20.2648 14.2882 20.0441 14.609 19.8231C15.4239 19.2622 16.2697 18.693 16.9688 17.9886C19.1944 15.7456 20.1911 12.0193 18.3739 9.22735" stroke="#267BFC" stroke-width="2" stroke-miterlimit="1.5" stroke-linecap="round" stroke-linejoin="round"/>
<path d="M25.527 41.5693C25.4458 41.6812 26.0794 40.7758 26.1617 40.526C26.4228 39.7356 26.4998 38.9265 26.4372 38.0983C26.2213 35.2412 24.584 33.1205 22.376 31.448C22.2133 31.5298 22.718 31.3176 22.873 31.222C23.3093 30.9536 23.723 30.6382 24.099 30.2907C25.1159 29.3499 25.9817 28.2126 26.4628 26.9041C27.8173 23.2219 25.2336 20.8813 22.3248 19.2661C22.2178 19.3308 22.52 19.1093 22.6249 19.0411C22.9236 18.8465 23.2145 18.6426 23.4978 18.4256C24.4483 17.6975 25.3617 16.8885 26.0099 15.8707C27.7878 13.0798 27.0838 9.68746 24.2144 7.96584" stroke="#267BFC" stroke-width="2" stroke-miterlimit="1.5" stroke-linecap="round" stroke-linejoin="round"/>
<path d="M35.7866 41.3516C36.1409 40.4427 36.2818 39.4286 36.2461 38.4577C36.15 35.8298 34.6759 31.8785 31.8257 31.0742C33.0418 30.7701 34.2039 30.2031 35.2411 28.9899C38.1749 25.5575 36.934 21.2966 32.8131 19.7511C34.3007 19.0334 35.6367 18.1155 36.6973 16.7261C39.2531 13.378 37.3118 9.42373 34.2409 7.26219" stroke="#267BFC" stroke-width="2" stroke-miterlimit="1.5" stroke-linecap="round" stroke-linejoin="round"/>
</svg>
