<svg width="50" height="50" viewBox="0 0 50 50" fill="none" xmlns="http://www.w3.org/2000/svg">
<path d="M7.08398 16.2271C7.16261 16.5961 7.80944 17.1046 8.04373 17.1951C9.01811 17.5729 10.0244 17.4624 11.0348 17.2848C13.8067 16.7979 16.1181 14.7389 17.0579 12.0907C16.827 11.9438 17.6574 13.8774 17.7498 14.0512C18.5423 15.5416 19.7286 16.9299 21.3302 17.5707C24.7224 18.9279 28.4331 16.5149 29.3989 13.1522C29.4019 13.1426 29.5209 13.514 29.568 13.6138C29.7352 13.9668 29.9559 14.2884 30.1769 14.6092C30.7378 15.4241 31.307 16.2699 32.0114 16.9691C34.2544 19.1947 37.9807 20.1914 40.7727 18.3741" stroke="#B9880C" stroke-width="2" stroke-miterlimit="1.5" stroke-linecap="round" stroke-linejoin="round"/>
<path d="M8.43042 25.527C8.31858 25.4458 9.224 26.0794 9.47371 26.1617C10.2642 26.4228 11.0732 26.4998 11.9015 26.4372C14.7586 26.2213 16.8793 24.584 18.5518 22.376C18.47 22.2133 18.6822 22.718 18.7778 22.873C19.0461 23.3093 19.3616 23.723 19.709 24.099C20.6499 25.1159 21.7872 25.9817 23.0957 26.4628C26.7778 27.8173 29.1185 25.2336 30.7337 22.3248C30.669 22.2178 30.8905 22.52 30.9586 22.6249C31.1532 22.9236 31.3572 23.2145 31.5741 23.4978C32.3023 24.4483 33.1113 25.3617 34.1291 26.0099C36.9199 27.7878 40.3123 27.0838 42.0339 24.2144" stroke="#B9880C" stroke-width="2" stroke-miterlimit="1.5" stroke-linecap="round" stroke-linejoin="round"/>
<path d="M8.64844 35.7866C9.55731 36.1409 10.5714 36.2818 11.5423 36.2461C14.1702 36.15 18.1215 34.6759 18.9258 31.8257C19.2299 33.0419 19.7969 34.2039 21.0101 35.2411C24.4425 38.1749 28.7034 36.934 30.2489 32.8131C30.9666 34.3007 31.8845 35.6367 33.2739 36.6974C36.622 39.2531 40.5763 37.3118 42.7378 34.2409" stroke="#B9880C" stroke-width="2" stroke-miterlimit="1.5" stroke-linecap="round" stroke-linejoin="round"/>
</svg>
