<svg width="109" height="90" viewBox="0 0 109 90" fill="none" xmlns="http://www.w3.org/2000/svg">
<g clip-path="url(#clip0_216_1168)">
<path d="M119.453 21.0899C119.525 22.7566 118.458 23.9179 116.588 24.1367C113.987 24.4412 111.388 24.7947 108.777 24.9725C106.394 25.1351 105.143 23.1884 103.953 21.6647C103.135 20.6172 103.693 19.1133 104.536 17.8613C107.357 13.6721 109.451 9.09797 111.369 4.44063C111.703 3.62861 112.054 2.88202 113.103 2.74651C114.242 2.59996 114.467 3.45788 114.992 4.13652C116.562 6.16393 116.901 8.60464 117.505 10.9628C118.357 14.2984 119.166 17.6451 119.453 21.0899Z" fill="white"/>
<path d="M113.993 58.3813C113.993 60.4873 114.562 62.1388 112.585 63.0892C112.116 63.3147 111.701 63.6206 111.209 63.5348C108.998 63.1496 106.84 63.2734 104.82 64.275C103.241 65.0575 102.354 64.4465 101.182 63.293C98.9316 61.0778 98.8772 60.1864 100.293 57.4441C102.558 53.0613 105.126 48.7974 106.533 44.007C106.72 43.3035 106.978 42.621 107.304 41.9704C108.009 40.6579 109.289 40.6341 110.265 41.7452C112.322 44.0878 112.555 47.0339 112.992 49.8854C113.454 52.8935 113.712 55.9321 113.993 58.3813Z" fill="white"/>
<path d="M84.6558 37.9314C84.6608 39.9047 83.6311 40.8263 81.47 40.435C79.7001 40.1149 77.9398 40.2928 76.2126 40.307C74.0785 40.3226 72.6764 39.3843 71.2295 38.1199C69.8953 36.9536 69.8281 35.6006 70.5924 34.2173C73.0239 29.8205 75.0336 25.2034 76.5946 20.4277C77.2046 18.5622 78.4684 18.4487 79.7851 19.9255C80.6735 20.9093 81.3447 22.0693 81.7549 23.3298C83.2387 28.0799 84.2113 32.9748 84.6558 37.9314Z" fill="white"/>
<path d="M49.4233 55.6379C47.9006 55.5647 46.591 55.6137 45.2675 55.3889C42.1168 54.8554 41.1177 53.9189 41.632 50.8152C42.2893 46.8479 42.751 42.8244 44.0083 38.9741C44.236 38.1455 44.5835 37.3547 45.0398 36.6266C45.8885 35.4201 46.9545 35.0576 48.1802 36.2584C49.2533 37.2444 50.1436 38.4124 50.8097 39.7086C52.5671 43.4803 54.0584 47.3703 55.2729 51.3501C55.4322 51.8144 55.4797 52.3097 55.4115 52.7958C55.3433 53.2819 55.1613 53.745 54.8803 54.1474C54.5993 54.5499 54.2273 54.8803 53.7945 55.1119C53.3618 55.3435 52.8804 55.4696 52.3897 55.48C51.3326 55.5191 50.2769 55.5935 49.4233 55.6379Z" fill="white"/>
<path d="M53.9498 15.097C54.1664 18.9384 52.4559 20.6738 48.5992 21.4211C46.5782 21.8123 45.1377 20.942 43.5801 20.2811C41.7661 19.5111 41.0854 18.1356 41.6171 15.9652C42.3011 13.1724 43.5115 10.6104 44.5198 7.96233C45.3443 5.79763 46.1453 3.63187 46.8585 1.42733C47.4254 -0.324771 48.1418 -0.262882 49.5912 0.540254C52.0974 1.92743 52.6003 4.24365 52.9755 6.63883C53.4145 9.44091 53.6346 12.2761 53.9498 15.097Z" fill="white"/>
<path d="M35.2891 100.626C35.3088 99.2245 35.7067 97.8545 36.4408 96.6607C38.2021 93.6089 39.4613 90.3373 40.7755 87.0885C41.8426 84.4518 42.0759 84.6577 44.2893 86.0687C46.5931 87.5377 47.1704 89.7184 47.9269 91.9073C48.7468 94.2833 49.4496 96.709 50.0344 99.154C50.5679 101.381 50.1169 101.839 47.9831 102.573C46.0144 103.248 44.2015 104.326 42.0329 104.467C40.9971 104.535 40.529 104.209 40.2189 103.314C39.939 102.505 39.3268 102.563 38.6709 102.835C36.8932 103.573 35.2859 102.521 35.2891 100.626Z" fill="white"/>
<path d="M22.6861 49.3333C22.7519 52.3136 22.0412 52.8339 19.4938 52.7834C18.044 52.7557 16.5839 53.2334 15.1288 53.4852C12.8592 53.8786 9.41791 51.8885 8.81503 49.9596C8.71442 49.6875 8.66912 49.398 8.68176 49.1082C8.6944 48.8183 8.76474 48.5339 8.88866 48.2716C10.6486 44.2687 12.368 40.248 14.1439 36.2522C14.9193 34.5094 15.8157 34.3671 17.2654 35.6739C20.5253 38.6097 21.2022 42.7453 22.3126 46.6646C22.5113 47.5422 22.6362 48.4348 22.6861 49.3333ZM17.6791 45.8027C17.11 45.271 17.9441 43.8785 16.6601 43.5239C16.2112 43.3997 15.9291 44.146 16.0945 44.5792C16.4018 45.3834 16.1191 46.571 17.2238 46.8851C17.7641 47.038 17.6794 46.4113 17.6791 45.8013V45.8027Z" fill="white"/>
<path d="M0 85.668C0.46239 81.0868 1.93351 76.7738 3.50421 72.5077C4.17503 70.6852 5.06922 70.6524 6.62534 71.8675C7.94714 72.8988 8.81387 74.4056 9.0408 76.0667C9.65222 79.9824 10.1523 83.917 10.6218 87.853C10.8199 89.5141 9.77315 90.3634 8.10464 90.7074C5.4434 91.2558 3.32459 90.2016 1.2545 88.8425C0.11809 88.0988 0.138006 86.8418 0 85.668Z" fill="white"/>
<path d="M76.8247 83.8704C76.1044 83.8114 75.276 83.492 74.9648 83.7637C73.8682 84.7223 72.5344 84.0643 71.3279 84.5035C70.0414 84.9716 68.0801 81.8035 68.2352 80.2214C68.465 77.8764 70.4921 76.3932 70.8196 74.0403C71.1433 71.7167 72.0727 69.4748 72.7759 67.2091C72.8482 66.8815 73.0276 66.5873 73.2858 66.3732C73.544 66.159 73.8662 66.037 74.2015 66.0264C75.0391 65.9823 75.482 66.36 75.8647 67.1177C77.9806 71.3147 79.106 75.8746 80.7208 80.2531C81.6115 82.671 79.3909 83.5233 76.8247 83.8704Z" fill="white"/>
<path d="M114.419 93.9481C114.974 96.408 112.262 97.7457 110.471 97.2915C109.637 97.0806 108.961 96.8021 107.95 97.2801C106.709 97.867 104.831 98.583 104.509 95.9662C104.484 95.7592 103.946 95.6518 103.717 95.4266C102.294 94.0306 102.251 92.0266 103.553 90.4389C103.864 90.0936 104.111 89.6963 104.284 89.2651C105.267 86.3556 107.427 83.911 107.643 80.6963C107.699 79.8629 108.008 79.0872 108.959 78.9367C109.909 78.7863 110.375 79.4703 110.763 80.2058C110.996 80.5277 111.197 80.8712 111.365 81.2316C112.616 85.4111 113.635 89.6563 114.419 93.9481Z" fill="white"/>
</g>
<defs>
<clipPath id="clip0_216_1168">
<rect width="149" height="179" fill="white"/>
</clipPath>
</defs>
</svg>
