<svg width="16" height="16" viewBox="0 0 16 16" fill="none" xmlns="http://www.w3.org/2000/svg">
<path fill-rule="evenodd" clip-rule="evenodd" d="M8.00065 14.6666C11.6825 14.6666 14.6673 11.6818 14.6673 7.99992C14.6673 4.31802 11.6825 1.33325 8.00065 1.33325C4.31875 1.33325 1.33398 4.31802 1.33398 7.99992C1.33398 11.6818 4.31875 14.6666 8.00065 14.6666ZM12.0411 6.70703C12.4316 6.3165 12.4316 5.68334 12.0411 5.29281C11.6506 4.90229 11.0174 4.90229 10.6269 5.29281L7.33398 8.58571L6.04109 7.29281C5.65057 6.90229 5.0174 6.90229 4.62688 7.29281C4.23635 7.68334 4.23635 8.3165 4.62688 8.70703L6.62688 10.707C7.0174 11.0976 7.65057 11.0976 8.04109 10.707L12.0411 6.70703Z" fill="#0166FF"/>
</svg>
