<svg width="12" height="12" viewBox="0 0 12 12" fill="none" xmlns="http://www.w3.org/2000/svg">
<path d="M9 2C9 1.44772 9.44772 1 10 1C10.5523 1 11 1.44772 11 2V10C11 10.5523 10.5523 11 10 11C9.44772 11 9 10.5523 9 10V2Z" fill="white"/>
<path d="M5 5C5 4.44772 5.44772 4 6 4C6.55228 4 7 4.44772 7 5V10C7 10.5523 6.55228 11 6 11C5.44772 11 5 10.5523 5 10V5Z" fill="white"/>
<path d="M1 7C1 6.44772 1.44772 6 2 6C2.55228 6 3 6.44772 3 7V10C3 10.5523 2.55228 11 2 11C1.44772 11 1 10.5523 1 10V7Z" fill="white"/>
</svg>
