<svg width="24" height="24" viewBox="0 0 24 24" fill="none" xmlns="http://www.w3.org/2000/svg">
<path d="M12.0006 6.86511C10.985 6.86511 9.99225 7.16627 9.14782 7.7305C8.30339 8.29473 7.64524 9.09669 7.25659 10.035C6.86795 10.9732 6.76626 12.0057 6.96439 13.0018C7.16252 13.9978 7.65157 14.9128 8.3697 15.6309C9.08783 16.349 10.0028 16.8381 10.9988 17.0362C11.9949 17.2344 13.0274 17.1327 13.9657 16.744C14.9039 16.3554 15.7059 15.6972 16.2701 14.8528C16.8343 14.0084 17.1355 13.0156 17.1355 12C17.1355 11.3257 17.0027 10.6579 16.7447 10.0349C16.4866 9.41195 16.1084 8.84588 15.6316 8.36906C15.1547 7.89224 14.5887 7.514 13.9657 7.25596C13.3427 6.99791 12.6749 6.8651 12.0006 6.86511ZM12.0006 15.3336C11.3413 15.3336 10.6968 15.1381 10.1486 14.7718C9.60036 14.4054 9.17308 13.8848 8.92077 13.2757C8.66846 12.6665 8.60245 11.9963 8.73108 11.3496C8.85971 10.7029 9.17721 10.109 9.64343 9.64275C10.1096 9.17654 10.7036 8.85905 11.3503 8.73042C11.997 8.6018 12.6672 8.66782 13.2764 8.92014C13.8855 9.17245 14.4061 9.59973 14.7724 10.1479C15.1387 10.6962 15.3342 11.3407 15.3342 12C15.3343 12.4378 15.2481 12.8713 15.0806 13.2758C14.9131 13.6802 14.6675 14.0478 14.3579 14.3573C14.0484 14.6669 13.6809 14.9124 13.2764 15.0799C12.8719 15.2474 12.4384 15.3336 12.0006 15.3336Z" fill="#267BFC"/>
<path d="M21.9399 7.87719C21.9236 7.04765 21.7665 6.22691 21.4755 5.44993C21.2239 4.78282 20.8304 4.17837 20.322 3.67847C19.8229 3.16961 19.2186 2.77594 18.5514 2.525C17.7744 2.23378 16.9537 2.07673 16.1241 2.06054C15.0578 2.012 14.717 2 12.0013 2C9.28564 2 8.94451 2.01126 7.87767 2.06054C7.04814 2.07693 6.2274 2.23398 5.45042 2.525C4.78312 2.77617 4.17859 3.1698 3.67896 3.67847C3.16982 4.17771 2.77614 4.78235 2.52556 5.44993C2.23454 6.22692 2.07749 7.04765 2.0611 7.87719C2.01181 8.94341 2.00049 9.28432 2.00049 12C2.00049 14.7157 2.01181 15.0565 2.06108 16.1228C2.07748 16.9523 2.23453 17.7731 2.52556 18.5501C2.77621 19.2176 3.16988 19.8222 3.67896 20.3215C4.17884 20.8299 4.78329 21.2234 5.45042 21.4749C6.22743 21.7659 7.04815 21.9229 7.87767 21.9394C8.94451 21.9879 9.28481 22 12.0005 22C14.7162 22 15.0571 21.9887 16.1233 21.9394C16.9528 21.923 17.7736 21.766 18.5506 21.4749C19.215 21.2181 19.8183 20.8252 20.322 20.3215C20.8257 19.8178 21.2186 19.2145 21.4755 18.5501C21.7668 17.7732 21.9239 16.9523 21.9399 16.1228C21.9884 15.0558 21.9997 14.7157 21.9997 12C21.9997 9.28432 21.9884 8.94341 21.9399 7.87719ZM20.1409 16.0413C20.1333 16.6754 20.0169 17.3035 19.7969 17.8983C19.6305 18.3296 19.3756 18.7212 19.0487 19.048C18.7217 19.3748 18.33 19.6295 17.8987 19.7957C17.304 20.0162 16.6758 20.1326 16.0416 20.1397C14.9875 20.1882 14.6709 20.1979 12.0004 20.1979C9.32992 20.1979 9.0142 20.1882 7.96043 20.1397C7.32625 20.1325 6.69805 20.0161 6.10335 19.7957C5.669 19.6352 5.27601 19.3797 4.95311 19.0477C4.6207 18.7256 4.36505 18.3327 4.20511 17.8983C3.98463 17.3037 3.86826 16.6754 3.86111 16.0413C3.81261 14.9872 3.80296 14.6706 3.80296 12.0001C3.80296 9.32956 3.81345 9.01384 3.86111 7.95887C3.8691 7.32479 3.98544 6.69674 4.20511 6.10187C4.36562 5.66751 4.62118 5.27452 4.95311 4.95163C5.27544 4.61903 5.6686 4.36336 6.10335 4.20363C6.69803 3.98318 7.32624 3.86681 7.96043 3.85963C9.0145 3.81114 9.33111 3.80148 12.0004 3.80148C14.6697 3.80148 14.9867 3.81197 16.0416 3.85963C16.6757 3.86762 17.3038 3.98396 17.8987 4.20363C18.3302 4.36988 18.722 4.6247 19.0489 4.95164C19.3759 5.27859 19.6307 5.67043 19.7969 6.10188C20.0174 6.69654 20.1338 7.32472 20.1409 7.95888C20.1894 9.01388 20.1991 9.32962 20.1991 12.0001C20.1991 14.6705 20.1895 14.9863 20.141 16.0413H20.1409Z" fill="#267BFC"/>
<path d="M17.3392 5.46198H17.3387C17.0205 5.46203 16.7154 5.58848 16.4905 5.8135C16.2655 6.03852 16.1391 6.34369 16.1392 6.66188C16.1392 6.98006 16.2656 7.2852 16.4906 7.51018C16.7156 7.73516 17.0208 7.86156 17.3389 7.86156C17.6571 7.86156 17.9623 7.73516 18.1873 7.51018C18.4123 7.2852 18.5387 6.98006 18.5387 6.66188C18.5388 6.34369 18.4124 6.03852 18.1874 5.8135C17.9625 5.58848 17.6574 5.46203 17.3392 5.46198Z" fill="#267BFC"/>
</svg>
