<svg width="24" height="24" viewBox="0 0 24 24" fill="none" xmlns="http://www.w3.org/2000/svg">
<path d="M5.0033 6.99998H4.97514C4.66852 7.01847 4.36137 6.97355 4.07289 6.86802C3.78441 6.76249 3.52079 6.59861 3.29848 6.38663C3.07617 6.17465 2.89995 5.91911 2.78083 5.63597C2.66171 5.35283 2.60224 5.04817 2.60614 4.74101C2.61004 4.43386 2.67722 4.13081 2.80349 3.85079C2.92976 3.57076 3.11241 3.31978 3.34003 3.1135C3.56765 2.90723 3.83535 2.7501 4.12641 2.65193C4.41748 2.55376 4.72566 2.51665 5.03172 2.54292C5.33928 2.52064 5.64814 2.56224 5.93885 2.6651C6.22956 2.76796 6.49585 2.92985 6.72097 3.1406C6.9461 3.35135 7.12518 3.6064 7.24696 3.88971C7.36875 4.17301 7.43061 4.47845 7.42864 4.78682C7.42667 5.09519 7.36093 5.39981 7.23554 5.68155C7.11015 5.96328 6.92783 6.21602 6.70004 6.42388C6.47225 6.63174 6.20392 6.79023 5.91191 6.88937C5.61991 6.98851 5.31056 7.02617 5.0033 6.99998Z" fill="#267BFC"/>
<path d="M7.01758 10H3.01758V22H7.01758V10Z" fill="#267BFC"/>
<path d="M17.5171 10C16.843 10.0018 16.1781 10.156 15.5721 10.451C14.966 10.746 14.4344 11.1741 14.0171 11.7034V10H10.0171V22H14.0171V16.5C14.0171 15.9696 14.2278 15.4609 14.6029 15.0858C14.9779 14.7107 15.4867 14.5 16.0171 14.5C16.5475 14.5 17.0562 14.7107 17.4313 15.0858C17.8064 15.4609 18.0171 15.9696 18.0171 16.5V22H22.0171V14.5C22.0171 13.9091 21.9007 13.3239 21.6745 12.7779C21.4484 12.232 21.1169 11.7359 20.6991 11.318C20.2812 10.9002 19.7851 10.5687 19.2392 10.3425C18.6932 10.1164 18.108 10 17.5171 10Z" fill="#267BFC"/>
</svg>
