<svg width="9" height="7" viewBox="0 0 9 7" fill="none" xmlns="http://www.w3.org/2000/svg">
<path d="M8.79557 6.98321C8.7631 6.9943 8.72894 7 8.69462 7C8.60189 7 8.51424 6.95866 8.45616 6.88763L8.17129 6.53882C7.78159 6.05776 7.28638 5.6695 6.72258 5.40296C6.15879 5.13649 5.54102 4.99872 4.91544 4.99998H4.11615V6.70004C4.11607 6.77954 4.08393 6.85572 4.02673 6.91194C3.96945 6.96816 3.89186 6.99976 3.81097 6.99976C3.73009 6.99976 3.6525 6.96824 3.59522 6.91202L0.339427 3.7119C0.282146 3.65568 0.25 3.57942 0.25 3.49984C0.25 3.42033 0.282146 3.34408 0.339427 3.28785L3.59522 0.0877388C3.6525 0.0315169 3.73009 0 3.81097 0C3.89186 0 3.96944 0.0315959 4.02673 0.0877388C4.08393 0.143961 4.11607 0.22022 4.11615 0.299722V1.99978H4.21791C5.48576 2.00121 6.70131 2.49685 7.59786 3.37794C8.49431 4.25914 8.99856 5.45378 9 6.7001C8.99992 6.76226 8.98026 6.82291 8.94368 6.87359C8.90703 6.92435 8.85539 6.96268 8.79569 6.98327L8.79557 6.98321Z" fill="white"/>
</svg>
