<svg width="24" height="24" viewBox="0 0 24 24" fill="none" xmlns="http://www.w3.org/2000/svg">
<path d="M20.4752 7.8046C20.4855 7.98968 20.4855 8.17478 20.4855 8.34961C20.4828 9.48827 20.3166 10.6207 19.9918 11.712C19.3075 14.2271 17.8049 16.4426 15.7212 18.0086C13.6375 19.5746 11.0916 20.4019 8.48542 20.3599C6.19117 20.3625 3.94509 19.7018 2.01758 18.4575C2.35188 18.4989 2.68843 18.5195 3.02528 18.5192C4.92371 18.5211 6.76744 17.8835 8.25928 16.7095C7.38059 16.693 6.52893 16.4028 5.82299 15.8793C5.11705 15.3558 4.59198 14.6252 4.32096 13.7892C4.58258 13.834 4.84734 13.8581 5.11276 13.8612C5.49174 13.8626 5.86903 13.8107 6.23354 13.7069C5.33111 13.5282 4.51233 13.0582 3.90299 12.369C3.29366 11.6797 2.9275 10.8095 2.86078 9.89199C2.84368 9.78665 2.83679 9.6799 2.84019 9.57324V9.52181C3.42622 9.848 4.08233 10.0279 4.75277 10.0462C4.17571 9.6616 3.70283 9.14011 3.37629 8.52829C3.04976 7.91647 2.87972 7.23335 2.88136 6.53985C2.88062 5.7931 3.07561 5.05921 3.4469 4.41131C4.50591 5.71616 5.82787 6.78335 7.3267 7.5434C8.82553 8.30344 10.4676 8.7393 12.1461 8.8226C11.9337 7.91778 12.0261 6.96815 12.4088 6.12123C12.7916 5.2743 13.4434 4.57749 14.2628 4.13903C15.0823 3.70057 16.0237 3.545 16.9406 3.69651C17.8576 3.84801 18.6989 4.29809 19.3338 4.97685C20.2806 4.78999 21.1883 4.44219 22.0176 3.94856C22.0533 4.66445 21.9339 5.37961 21.6677 6.04512C21.4015 6.71063 20.9947 7.31081 20.4752 7.8046Z" fill="#267BFC"/>
</svg>
